<svg width="32" height="32" viewBox="0 0 32 32" fill="none" xmlns="http://www.w3.org/2000/svg">
<g filter="url(#filter0_d_1514_13314)">
<path fill-rule="evenodd" clip-rule="evenodd" d="M8 2C6.89543 2 6 2.89543 6 4V8C6 9.10457 6.89543 10 8 10H12C13.1046 10 14 9.10457 14 8V4C14 2.89543 13.1046 2 12 2H8ZM22 10C24.2091 10 26 8.20914 26 6C26 3.79086 24.2091 2 22 2C19.7909 2 18 3.79086 18 6C18 8.20914 19.7909 10 22 10ZM14 18C14 20.2091 12.2091 22 10 22C7.79086 22 6 20.2091 6 18C6 15.7909 7.79086 14 10 14C12.2091 14 14 15.7909 14 18ZM20 14C18.8954 14 18 14.8954 18 16V20C18 21.1046 18.8954 22 20 22H24C25.1046 22 26 21.1046 26 20V16C26 14.8954 25.1046 14 24 14H20Z" fill="#06253A"/>
</g>
<defs>
<filter id="filter0_d_1514_13314" x="0" y="0" width="32" height="32" filterUnits="userSpaceOnUse" color-interpolation-filters="sRGB">
<feFlood flood-opacity="0" result="BackgroundImageFix"/>
<feColorMatrix in="SourceAlpha" type="matrix" values="0 0 0 0 0 0 0 0 0 0 0 0 0 0 0 0 0 0 127 0" result="hardAlpha"/>
<feOffset dy="4"/>
<feGaussianBlur stdDeviation="2"/>
<feComposite in2="hardAlpha" operator="out"/>
<feColorMatrix type="matrix" values="0 0 0 0 0 0 0 0 0 0 0 0 0 0 0 0 0 0 0.25 0"/>
<feBlend mode="normal" in2="BackgroundImageFix" result="effect1_dropShadow_1514_13314"/>
<feBlend mode="normal" in="SourceGraphic" in2="effect1_dropShadow_1514_13314" result="shape"/>
</filter>
</defs>
</svg>
