<svg width="136" height="136" viewBox="0 0 136 136" fill="none" xmlns="http://www.w3.org/2000/svg">
<path fill-rule="evenodd" clip-rule="evenodd" d="M110.667 124.666C116.435 124.666 119.728 118.081 116.267 113.466L85.3171 72.1997C83.4504 69.7108 83.4504 66.2886 85.3171 63.7997L116.267 22.533C119.728 17.9184 116.435 11.333 110.667 11.333L25.3338 11.333C19.5654 11.333 16.2728 17.9184 19.7338 22.533L50.6838 63.7997C52.5504 66.2886 52.5504 69.7108 50.6838 72.1997L19.7338 113.466C16.2728 118.081 19.5654 124.666 25.3338 124.666L110.667 124.666ZM67.2195 55.6903C67.6199 56.1907 68.381 56.1907 68.7813 55.6903L89.3673 29.9577C89.8911 29.303 89.425 28.333 88.5865 28.333L47.4144 28.333C46.5759 28.333 46.1097 29.3029 46.6335 29.9577L67.2195 55.6903Z" fill="#28303F"/>
</svg>
