<svg width="20" height="20" viewBox="0 0 20 20" fill="none" xmlns="http://www.w3.org/2000/svg">
<path d="M15 11.667L15.9596 10.7074C16.3501 10.3169 16.3501 9.68374 15.9596 9.29322L15 8.33366" stroke="#F45B69" stroke-width="1.5" stroke-linecap="round" stroke-linejoin="round"/>
<path d="M15.8333 10L10.8333 10M3.33334 14.3886V6.05527M13.3333 14.3886C13.3333 15.3091 12.5871 16.0553 11.6667 16.0553H8.33334M13.3333 6.05527C13.3333 5.1348 12.5871 4.38861 11.6667 4.38861H8.33334M4.0755 16.5501L5.74217 17.6612C6.84976 18.3996 8.33334 17.6056 8.33334 16.2744V4.16947C8.33334 2.83831 6.84976 2.04432 5.74217 2.78272L4.0755 3.89383C3.61184 4.20294 3.33334 4.72333 3.33334 5.28058V15.1633C3.33334 15.7206 3.61184 16.2409 4.0755 16.5501Z" stroke="#F45B69" stroke-width="1.5" stroke-linecap="round"/>
</svg>
